<svg width="29" height="28" viewBox="0 0 29 28" fill="none" xmlns="http://www.w3.org/2000/svg">
<g clip-path="url(#clip0_204_20)">
<path fill-rule="evenodd" clip-rule="evenodd" d="M5.98807 3.52274C5.98807 2.77793 6.61773 2.73206 7.39357 2.73206H21.4486C22.2244 2.73206 22.8541 2.77793 22.8541 3.52274V5.20802L15.0494 8.95495C14.6544 9.14385 14.1878 9.14385 13.7928 8.95495L5.98807 5.20802V3.52274ZM3.56498 7.06188L13.1646 11.6697C13.9559 12.0502 14.8863 12.0502 15.6776 11.6697L25.2772 7.06188C25.5147 6.94854 25.6651 6.71517 25.6651 6.45881V2.17345C25.6651 0.682496 24.4072 0.033493 22.8541 0.033493H5.98807C4.43499 0.033493 3.17706 0.682496 3.17706 2.17345V6.45881C3.17706 6.71517 3.32745 6.94854 3.56498 7.06188ZM25.6651 22.4127C25.6651 23.1575 25.0354 24.3206 24.2596 24.3206H4.58257C3.80673 24.3206 3.17706 23.1575 3.17706 22.4127V13.6829C3.17706 13.1823 3.72661 12.8557 4.19465 13.0797C10.064 15.897 8.26077 15.0321 13.1828 17.3947C13.9629 17.7698 14.8821 17.7752 15.6664 17.4082C20.5449 15.136 18.4942 16.0859 24.6588 13.2443C25.124 13.0285 25.6651 13.355 25.6651 13.8528V22.4127ZM24.4086 10.1774L15.0494 14.6705C14.6544 14.8594 14.1878 14.8594 13.7928 14.6705L4.43358 10.1774C2.56567 9.28148 0.366058 10.5862 0.366058 12.5913V23.762C0.366058 25.2529 1.62398 27.0191 3.17706 27.0191H25.6651C27.2182 27.0191 28.4761 25.2529 28.4761 23.762V12.5913C28.4761 10.5862 26.2765 9.28148 24.4086 10.1774Z" fill="white"/>
</g>
<defs>
<clipPath id="clip0_204_20">
<rect width="28.11" height="26.9856" fill="white" transform="translate(0.366058 0.033493)"/>
</clipPath>
</defs>
</svg>
