<svg width="25" height="24" viewBox="0 0 25 24" fill="none" xmlns="http://www.w3.org/2000/svg">
<g clip-path="url(#clip0_202_8)">
<path fill-rule="evenodd" clip-rule="evenodd" d="M12.402 0.282295C18.9225 0.282295 24.2082 5.70127 24.2082 12.3871C24.2082 17.7342 20.8292 22.2701 16.141 23.8722C15.5424 23.9915 15.3299 23.6135 15.3299 23.2912C15.3299 22.8921 15.3441 21.5887 15.3441 19.9689C15.3441 18.8403 14.9663 18.1036 14.5424 17.7282C17.1717 17.4283 19.9343 16.4046 19.9343 11.7553C19.9343 10.433 19.4762 9.35398 18.7183 8.50629C18.8411 8.20051 19.246 6.96928 18.6026 5.30224C18.6026 5.30224 17.6132 4.97789 15.3594 6.5434C14.4161 6.27539 13.4055 6.14055 12.402 6.13583C11.3984 6.14055 10.389 6.27539 9.44686 6.5434C7.19069 4.97789 6.19897 5.30224 6.19897 5.30224C5.55789 6.96928 5.96284 8.20051 6.08445 8.50629C5.33003 9.35398 4.86841 10.433 4.86841 11.7553C4.86841 16.3928 7.62516 17.4322 10.2473 17.738C9.90966 18.0402 9.60388 18.5734 9.49762 19.3561C8.82467 19.6655 7.11513 20.2008 6.06201 18.3508C6.06201 18.3508 5.43746 17.1877 4.25212 17.1027C4.25212 17.1027 3.10101 17.0874 4.17184 17.8383C4.17184 17.8383 4.94514 18.2102 5.48233 19.6092C5.48233 19.6092 6.17536 21.7697 9.45985 21.0377C9.46575 22.0495 9.47638 23.0031 9.47638 23.2912C9.47638 23.6111 9.25913 23.9856 8.67 23.8734C3.97821 22.2737 0.595734 17.7353 0.595734 12.3871C0.595734 5.70127 5.88256 0.282295 12.402 0.282295Z" fill="white"/>
</g>
<defs>
<clipPath id="clip0_202_8">
<rect width="23.6124" height="23.6124" fill="white" transform="translate(0.595734 0.282295)"/>
</clipPath>
</defs>
</svg>
