<svg width="40" height="40" viewBox="0 0 40 40" fill="none" xmlns="http://www.w3.org/2000/svg">
<path d="M31.2106 6.84604H9.31986C9.0377 6.83283 8.7557 6.87538 8.49001 6.97129C8.22432 7.0672 7.98016 7.21456 7.77149 7.40494C7.56283 7.59533 7.39375 7.82501 7.27397 8.08081C7.15419 8.33663 7.08602 8.61355 7.07339 8.89573V30.8357C7.08992 31.4262 7.33192 31.9881 7.74968 32.4057C8.16744 32.8235 8.72928 33.0656 9.31986 33.0821H31.2106C31.7846 33.0566 32.3259 32.807 32.7183 32.387C33.1107 31.9671 33.3229 31.4102 33.3094 30.8357V8.89573C33.3142 8.62107 33.2627 8.34837 33.1583 8.0943C33.0538 7.84026 32.8985 7.61022 32.7019 7.41828C32.5055 7.22637 32.2718 7.07662 32.0153 6.97822C31.7589 6.87982 31.4851 6.83484 31.2106 6.84604ZM15.2722 28.7204H11.4515V17.029H15.2722V28.7204ZM13.452 15.258C13.1854 15.2673 12.9198 15.2213 12.6718 15.123C12.4238 15.0248 12.1988 14.8762 12.0109 14.6868C11.823 14.4974 11.6764 14.2712 11.5801 14.0224C11.4838 13.7736 11.4401 13.5076 11.4515 13.2411C11.4397 12.9717 11.4844 12.7028 11.5826 12.4517C11.6809 12.2005 11.8305 11.9727 12.022 11.7828C12.2134 11.5929 12.4424 11.4451 12.6944 11.3489C12.9463 11.2527 13.2155 11.2102 13.4848 11.2242C13.7514 11.2149 14.0171 11.2608 14.2651 11.3591C14.5131 11.4574 14.7381 11.6059 14.926 11.7953C15.1138 11.9847 15.2605 12.2109 15.3568 12.4597C15.453 12.7085 15.4968 12.9746 15.4853 13.2411C15.4971 13.5105 15.4525 13.7794 15.3542 14.0305C15.256 14.2817 15.1063 14.5095 14.9149 14.6994C14.7234 14.8893 14.4944 15.0371 14.2425 15.1333C13.9906 15.2295 13.7213 15.2719 13.452 15.258ZM28.9477 28.7204H25.1107V22.3254C25.1107 20.8004 24.5696 19.7509 23.2086 19.7509C22.7858 19.7546 22.3744 19.8888 22.0311 20.1355C21.6875 20.3821 21.4288 20.7289 21.2901 21.1283C21.1835 21.4278 21.1389 21.7457 21.1589 22.063V28.7204H17.3874V17.029H21.1589V18.6687C21.4942 18.0527 21.9932 17.5414 22.6009 17.1911C23.2086 16.841 23.9012 16.6657 24.6024 16.6846C27.0784 16.6846 28.9477 18.3244 28.9477 21.817V28.7204Z" fill="white"/>
</svg>
