<svg id="Capa_1" data-name="Capa 1" xmlns="http://www.w3.org/2000/svg" viewBox="0 0 549.894 301.956"><defs><style>.cls-1{fill:#1d1d1b;}.cls-2{fill:#fff;}</style></defs><path class="cls-1" d="M884.89,299.51q-.24.54-.42,1.08A4.176,4.176,0,0,1,884.89,299.51Z" transform="translate(-334.996 -146.66)"/><path class="cls-2" d="M500.717,293.575a69.581,69.581,0,0,1,6.177,28.863c0,1.676-.052,3.351-.174,4.991-2.129,30.486-23.524,55.179-51.043,59.8h-.017a56.326,56.326,0,0,1-18.742,0H436.9a56.759,56.759,0,0,1-16.089-5.288c-13.891-6.98-24.919-19.474-30.7-34.9a69.328,69.328,0,0,1-4.188-18.881c-.017-.244-.034-.489-.052-.733-.122-1.64-.175-3.315-.175-4.991a71.623,71.623,0,0,1,.559-8.917c1-7.87,10.784-11.151,16.177-5.34a1.619,1.619,0,0,1,.156.175,9.374,9.374,0,0,1,2.6,7.556,49.612,49.612,0,0,0-.384,6.072,46.44,46.44,0,0,0,.314,5.445,6.184,6.184,0,0,0,.1.82,46.172,46.172,0,0,0,10.034,23.523l.018.018a41.5,41.5,0,0,0,12.39,10.365,38.646,38.646,0,0,0,9.249,3.683c1.047.261,2.129.488,3.21.663a37.845,37.845,0,0,0,6.16.541h.262a37.693,37.693,0,0,0,5.27-.367,34.888,34.888,0,0,0,3.857-.715c17.066-4.1,30.172-19.492,32.283-38.531a46.44,46.44,0,0,0,.314-5.445,47.8,47.8,0,0,0-1.116-10.33c-3.63-16.735-15.915-29.875-31.481-33.627v44.847q0,1.963-.105,3.875c-.017.226-.035.453-.035.68h.14v31.62a33.054,33.054,0,0,1-6.719,1.17q-1.2.1-2.408.1h-.262c-.523,0-1.029-.017-1.552-.052a32.5,32.5,0,0,1-7.818-1.379V276.125a57.4,57.4,0,0,1-22.651-9.284c-.017-.017-.035-.017-.052-.035a64.833,64.833,0,0,1-5.27-4.066c-1.554-1.343-3.054-2.774-4.485-4.275a65.083,65.083,0,0,1-12.181-18.149,68.6,68.6,0,0,1-4.833-15.3H364.8a9.365,9.365,0,0,1-6.631-16,9.277,9.277,0,0,1,6.631-2.757h21.638c2.583-33.295,28.375-59.454,59.855-59.593h.262c31.6,0,57.517,26.21,60.117,59.593.157,1.832.227,3.682.227,5.549a73.1,73.1,0,0,1-.506,8.586,9.172,9.172,0,0,1-15.793,5.043l-.157-.174a9.617,9.617,0,0,1-2.478-7.783,50.408,50.408,0,0,0,.314-5.672,44.688,44.688,0,0,0-.331-5.549c-2.513-22.267-20.086-39.508-41.393-39.508h-.262c-21.184.14-38.635,17.328-41.148,39.508a44.688,44.688,0,0,0-.331,5.549,48.423,48.423,0,0,0,1.1,10.261c.209,1,.454,1.989.733,2.949a44.133,44.133,0,0,0,22.529,27.747,37.538,37.538,0,0,0,7.748,2.9V225.012h-23.7a40.128,40.128,0,0,1-1.78-7.434,42.018,42.018,0,0,1-.035-11.325h55.824a9.38,9.38,0,0,1,0,18.759H455.677v32.633a57.434,57.434,0,0,1,22.755,9.2c.07.052.14.087.21.14A64.336,64.336,0,0,1,500.717,293.575Z" transform="translate(-334.996 -146.66)"/><path class="cls-2" d="M455.4,393.821c-.017.28-.052.559-.087.838A60.329,60.329,0,0,1,335,388.028a60.912,60.912,0,0,1,1.873-15.035,9.359,9.359,0,0,1,15.974-3.9l.143.151a9.13,9.13,0,0,1,2.117,8.557,41.668,41.668,0,0,0-1.33,10.223v.244a41.554,41.554,0,0,0,31.934,40.433,40.794,40.794,0,0,0,9.633,1.134,41.578,41.578,0,0,0,41.1-35.18c.052-.314.087-.611.122-.925a61.787,61.787,0,0,0,9.737.768A60.3,60.3,0,0,0,455.4,393.821Z" transform="translate(-334.996 -146.66)"/></svg>